<svg xmlns="http://www.w3.org/2000/svg" viewBox="0 0 512 512" width="512" height="512">
<circle cx="256" cy="256" r="252" fill="#1A1A1A"/>
<circle cx="256" cy="256" r="246" fill="none" stroke="#B8954A" stroke-width="12"/>
<g fill="#B8954A"><path transform="translate(91.00,356.00) scale(0.11465,-0.11465)" d="M1166 1277 377 39 223 100H802Q853 100 893.0 109.5Q933 119 965.5 143.0Q998 167 1026.0 212.0Q1054 257 1083 328L1113 406Q1123 430 1140.5 438.5Q1158 447 1181 442Q1206 438 1214.5 420.0Q1223 402 1218 376L1144 38Q1136 2 1119.0 -16.0Q1102 -34 1068 -34Q1048 -34 1029.5 -25.5Q1011 -17 987.5 -8.5Q964 0 927 0H112Q82 0 67.5 13.5Q53 27 53 49Q53 64 59.5 81.5Q66 99 80 121L874 1365L908 1300H479Q425 1300 384.0 1284.0Q343 1268 311.0 1229.5Q279 1191 250 1122L222 1053Q209 1027 190.5 1018.5Q172 1010 151 1014Q127 1017 115.5 1034.5Q104 1052 110 1083L166 1366Q174 1405 192.5 1422.5Q211 1440 243 1440Q265 1440 284.0 1430.5Q303 1421 327.0 1410.5Q351 1400 385 1400H1135Q1165 1400 1180.0 1387.0Q1195 1374 1195 1351Q1195 1337 1188.0 1318.5Q1181 1300 1166 1277Z"/><path transform="translate(248.57,356.00) scale(0.11465,-0.11465)" d="M1359 919Q1359 823 1316.0 745.0Q1273 667 1194.0 614.5Q1115 562 1006 542Q966 535 931.5 527.0Q897 519 862.0 513.0Q827 507 784 507Q722 507 665.5 515.5Q609 524 562.0 540.5Q515 557 480 580L486 670Q514 650 552.5 635.5Q591 621 636.5 614.0Q682 607 732 607Q877 607 958.5 685.0Q1040 763 1040 915Q1040 1029 991.5 1117.5Q943 1206 855.5 1256.5Q768 1307 650 1307H562V167Q562 145 573.0 131.0Q584 117 606 110L675 97Q699 88 708.0 76.5Q717 65 717 46Q717 0 657 0H164Q133 0 118.5 12.5Q104 25 104 46Q104 84 146 97L203 110Q227 117 240.0 131.0Q253 145 253 167V1233Q253 1255 240.0 1269.0Q227 1283 203 1290L146 1303Q104 1316 104 1354Q104 1376 118.5 1388.0Q133 1400 164 1400H661Q886 1400 1041.5 1338.5Q1197 1277 1278.0 1168.5Q1359 1060 1359 919ZM782 548 1085 583 1344 168Q1363 139 1382.5 123.0Q1402 107 1435 97Q1466 88 1477.0 76.5Q1488 65 1488 46Q1488 25 1472.5 12.5Q1457 0 1426 0H1000Q941 0 941 46Q941 59 948.0 68.0Q955 77 970 84L999 92Q1021 101 1024.0 115.0Q1027 129 1012 154Z"/></g></svg>